<?xml version="1.0"?>
<!-- Generated by SVGo -->
<svg width="230.314mm" height="73.152mm"
     viewBox="0.000 0.000 230.314 73.152"
     xmlns="http://www.w3.org/2000/svg" 
     xmlns:xlink="http://www.w3.org/1999/xlink">
<polygon points="222.314,5.001 222.549,5.010 222.783,5.037 223.014,5.083 223.241,5.147 223.462,5.229 223.676,5.327 223.881,5.443 224.077,5.573 224.262,5.719 224.435,5.879 224.595,6.052 224.741,6.237 224.872,6.433 224.987,6.639 225.086,6.852 225.167,7.073 225.231,7.300 225.277,7.531 225.305,7.765 225.314,8.001 225.314,65.151 225.305,65.386 225.277,65.621 225.231,65.852 225.167,66.079 225.086,66.300 224.987,66.513 224.872,66.719 224.741,66.915 224.595,67.100 224.435,67.273 224.262,67.433 224.077,67.579 223.881,67.709 223.676,67.825 223.462,67.923 223.241,68.005 223.014,68.069 222.783,68.115 222.549,68.142 222.314,68.152 8.001,68.152 7.765,68.142 7.531,68.115 7.300,68.069 7.073,68.005 6.852,67.923 6.639,67.825 6.433,67.709 6.237,67.579 6.052,67.433 5.879,67.273 5.719,67.100 5.573,66.915 5.443,66.719 5.327,66.513 5.229,66.300 5.147,66.079 5.083,65.852 5.037,65.621 5.010,65.386 5.000,65.151 5.001,8.001 5.010,7.765 5.037,7.531 5.083,7.300 5.147,7.073 5.229,6.852 5.327,6.639 5.443,6.433 5.573,6.237 5.719,6.052 5.879,5.879 6.052,5.719 6.237,5.573 6.433,5.443 6.639,5.327 6.852,5.229 7.073,5.147 7.300,5.083 7.531,5.037 7.765,5.010 8.001,5.000" style="fill:none;stroke-width:0.050000mm;stroke:black"/>
<polygon points="10.525,48.626 10.525,62.626 24.526,62.626 24.526,48.626" style="fill:none;stroke-width:0.050000mm;stroke:black"/>
<polygon points="29.576,48.626 29.576,62.626 43.576,62.626 43.576,48.626" style="fill:none;stroke-width:0.050000mm;stroke:black"/>
<polygon points="48.626,48.626 48.626,62.626 62.626,62.626 62.626,48.626" style="fill:none;stroke-width:0.050000mm;stroke:black"/>
<polygon points="67.676,48.626 67.676,62.626 81.676,62.626 81.676,48.626" style="fill:none;stroke-width:0.050000mm;stroke:black"/>
<polygon points="86.726,48.626 86.726,62.626 100.726,62.626 100.726,48.626" style="fill:none;stroke-width:0.050000mm;stroke:black"/>
<polygon points="105.775,48.626 105.775,62.626 119.775,62.626 119.775,48.626" style="fill:none;stroke-width:0.050000mm;stroke:black"/>
<polygon points="124.825,48.626 124.825,62.626 138.826,62.626 138.826,48.626" style="fill:none;stroke-width:0.050000mm;stroke:black"/>
<polygon points="143.876,48.626 143.876,62.626 157.876,62.626 157.876,48.626" style="fill:none;stroke-width:0.050000mm;stroke:black"/>
<polygon points="162.926,48.626 162.926,62.626 176.926,62.626 176.926,48.626" style="fill:none;stroke-width:0.050000mm;stroke:black"/>
<polygon points="181.976,48.626 181.976,62.626 195.976,62.626 195.976,48.626" style="fill:none;stroke-width:0.050000mm;stroke:black"/>
<polygon points="205.788,48.626 205.788,62.626 219.788,62.626 219.788,48.626" style="fill:none;stroke-width:0.050000mm;stroke:black"/>
<polygon points="10.525,29.576 10.525,43.576 24.526,43.576 24.526,29.576" style="fill:none;stroke-width:0.050000mm;stroke:black"/>
<polygon points="29.576,29.576 29.576,43.576 43.576,43.576 43.576,29.576" style="fill:none;stroke-width:0.050000mm;stroke:black"/>
<polygon points="48.626,29.576 48.626,43.576 62.626,43.576 62.626,29.576" style="fill:none;stroke-width:0.050000mm;stroke:black"/>
<polygon points="67.676,29.576 67.676,43.576 81.676,43.576 81.676,29.576" style="fill:none;stroke-width:0.050000mm;stroke:black"/>
<polygon points="86.726,29.576 86.726,43.576 100.726,43.576 100.726,29.576" style="fill:none;stroke-width:0.050000mm;stroke:black"/>
<polygon points="105.775,29.576 105.775,43.576 119.775,43.576 119.775,29.576" style="fill:none;stroke-width:0.050000mm;stroke:black"/>
<polygon points="124.825,29.576 124.825,43.576 138.826,43.576 138.826,29.576" style="fill:none;stroke-width:0.050000mm;stroke:black"/>
<polygon points="143.876,29.576 143.876,43.576 157.876,43.576 157.876,29.576" style="fill:none;stroke-width:0.050000mm;stroke:black"/>
<polygon points="162.926,29.576 162.926,43.576 176.926,43.576 176.926,29.576" style="fill:none;stroke-width:0.050000mm;stroke:black"/>
<polygon points="181.976,29.576 181.976,43.576 195.976,43.576 195.976,29.576" style="fill:none;stroke-width:0.050000mm;stroke:black"/>
<polygon points="205.788,29.576 205.788,43.576 219.788,43.576 219.788,29.576" style="fill:none;stroke-width:0.050000mm;stroke:black"/>
<polygon points="10.525,10.525 10.525,24.526 24.526,24.526 24.526,10.525" style="fill:none;stroke-width:0.050000mm;stroke:black"/>
<polygon points="29.576,10.525 29.576,24.526 43.576,24.526 43.576,10.525" style="fill:none;stroke-width:0.050000mm;stroke:black"/>
<polygon points="48.626,10.525 48.626,24.526 62.626,24.526 62.626,10.525" style="fill:none;stroke-width:0.050000mm;stroke:black"/>
<polygon points="67.676,10.525 67.676,24.526 81.676,24.526 81.676,10.525" style="fill:none;stroke-width:0.050000mm;stroke:black"/>
<polygon points="86.726,10.525 86.726,24.526 100.726,24.526 100.726,10.525" style="fill:none;stroke-width:0.050000mm;stroke:black"/>
<polygon points="105.775,10.525 105.775,24.526 119.775,24.526 119.775,10.525" style="fill:none;stroke-width:0.050000mm;stroke:black"/>
<polygon points="124.825,10.525 124.825,24.526 138.826,24.526 138.826,10.525" style="fill:none;stroke-width:0.050000mm;stroke:black"/>
<polygon points="143.876,10.525 143.876,24.526 157.876,24.526 157.876,10.525" style="fill:none;stroke-width:0.050000mm;stroke:black"/>
<polygon points="162.926,10.525 162.926,24.526 176.926,24.526 176.926,10.525" style="fill:none;stroke-width:0.050000mm;stroke:black"/>
<polygon points="181.976,10.525 181.976,24.526 195.976,24.526 195.976,10.525" style="fill:none;stroke-width:0.050000mm;stroke:black"/>
<polygon points="205.788,10.525 205.788,24.526 219.788,24.526 219.788,10.525" style="fill:none;stroke-width:0.050000mm;stroke:black"/>
</svg>
